<svg version="1.1" id="Layer_1" xmlns="http://www.w3.org/2000/svg" xmlns:xlink="http://www.w3.org/1999/xlink" x="0px" y="0px"
	 width="100%" viewBox="0 0 512 512" enable-background="new 0 0 512 512" xml:space="preserve">
<path fill="#8B4513" opacity="1.000000" stroke="none" 
	d="
M33.947186,215.085297 
	C48.698368,185.427261 71.880531,165.228134 101.302345,151.798218 
	C126.062965,140.495941 152.567001,135.426865 179.131592,130.737747 
	C201.809235,126.734726 224.757416,125.072029 247.723755,125.102898 
	C286.165436,125.154579 324.005737,130.305923 361.199341,140.287018 
	C382.693115,146.054962 403.594757,153.070679 422.645355,164.859314 
	C447.482086,180.228439 468.261414,199.500824 481.135071,226.211197 
	C494.374451,253.680481 494.959412,281.958923 485.867554,310.722015 
	C474.192963,347.655914 449.630798,371.391449 412.305725,381.483002 
	C386.751190,388.392212 362.553406,384.389679 339.742737,370.924591 
	C324.066193,361.670746 307.638824,354.003296 289.928925,349.346161 
	C260.443207,341.592407 232.168869,345.874207 204.651031,357.811401 
	C193.477570,362.658417 182.718567,368.305206 172.314316,374.637726 
	C128.034393,401.588837 80.189445,388.068390 50.655025,351.063568 
	C35.546932,332.134094 25.742655,311.077484 22.769773,286.937714 
	C19.704792,262.050079 22.994156,238.166580 33.947186,215.085297 
M476.819763,249.595779 
	C474.034149,240.980362 469.934418,232.968582 465.129333,225.355835 
	C460.775604,218.458237 456.150635,211.686783 450.360962,205.880402 
	C446.818298,202.327515 441.949768,201.860413 437.974976,204.294067 
	C433.902557,206.787521 432.762024,210.622833 433.498077,215.089340 
	C433.946350,217.809280 435.738464,219.911545 437.456512,221.933075 
	C442.547211,227.922989 447.040100,234.336700 450.794006,241.220123 
	C455.915619,250.611526 460.456207,260.245514 460.353180,271.321167 
	C460.309113,276.054810 457.958710,279.194000 453.573914,280.758026 
	C449.118134,282.347321 447.069702,278.862854 445.218536,276.093567 
	C440.871735,269.590790 436.850555,262.865143 432.830078,256.150391 
	C418.583313,232.356369 399.670746,213.751266 373.823700,202.796387 
	C364.781464,198.963943 355.673737,195.273392 346.738800,191.204269 
	C339.647125,187.974564 339.244568,183.089493 345.325989,178.019394 
	C346.890381,176.715164 348.761871,176.092743 350.728943,175.575745 
	C356.410156,174.082596 361.973999,174.960953 367.532349,176.177887 
	C382.765350,179.512985 396.172028,186.767838 408.905518,195.474808 
	C415.806976,200.193954 422.088623,199.787384 425.625854,194.459366 
	C429.244263,189.009064 427.561188,183.845200 420.686035,178.945847 
	C409.362091,170.876175 397.283234,164.207214 384.106750,159.726730 
	C370.043915,154.944839 355.714111,151.920425 341.128937,157.286560 
	C328.621674,161.888168 322.095062,171.742493 320.550812,184.455643 
	C319.038544,196.905136 326.756470,204.028656 337.041779,209.172836 
	C344.805695,213.055969 352.872375,216.200073 360.915192,219.384888 
	C382.871765,228.079269 400.116364,242.284851 412.643494,262.347992 
	C418.373596,271.525208 423.455902,281.111115 429.984833,289.793518 
	C436.495728,298.451965 444.849548,303.591309 455.805420,301.326782 
	C467.653961,298.877747 476.448212,292.142883 479.604980,279.764343 
	C482.170715,269.703400 480.197327,259.953827 476.819763,249.595779 
z"/>
</svg>
